<svg xmlns="http://www.w3.org/2000/svg" viewBox="0 0 114 114"><defs><style>.prefix__prefix__b{fill:#007e53}</style></defs><ellipse cx="57.21" cy="57.21" rx="50.96" ry="51.31" fill="#fff"/><path class="prefix__prefix__b" d="M20.1 26.32h2.82v7.18H20.1zm3.9 0h2.82v7.18H24zm3.92 0h2.82v7.18h-2.82zm3.91 0h2.82v7.18h-2.82zm3.91 0h2.82v7.18h-2.82zm3.91 0h2.83v7.18h-2.83zm3.91 0h2.83v7.18h-2.83zm3.91 0h2.83v7.18h-2.83zM20.1 37.17h2.82v7.15H20.1zm3.9 0h2.82v7.15H24zm3.92 0h2.82v7.15h-2.82zm3.91 0h2.82v7.15h-2.82zm3.91 0h2.82v7.15h-2.82zm3.91 0h2.83v7.15h-2.83zm3.91 0h2.83v7.15h-2.83zm3.91 0h2.83v7.15h-2.83zM20.1 53.32h2.82v7.19H20.1zm3.9 0h2.82v7.19H24zm19.56 0h2.75v7.19h-2.75zm3.91 0h2.83v7.19h-2.83zm-18.79-1.24h6.08v16.54h-6.08zm7.17 0h6.08v16.54h-6.08zm38.52-12.62l-1.22 7.27 1.21 7.33 1.23-7.35z"/><path class="prefix__prefix__b" d="M97.3 16.69a57 57 0 100 80.62 57 57 0 000-80.62zM77.21 27.22a4 4 0 113.48 4.46 4 4 0 01-3.48-4.46zM68 23.62a4 4 0 010 8v.05a4 4 0 010-8zM57.11 49l2.28-13.5a2.2 2.2 0 012.2-2.12H74.3a1.9 1.9 0 01.58.09h12.18a2.21 2.21 0 012.21 2.11l2.29 13.5a.61.61 0 010 .19 1.41 1.41 0 01-2.8.19l-1.68-10a1.2 1.2 0 00-2.36.44l4.59 27.55a2.303 2.303 0 01-4.52.89l-2.87-17a1.23 1.23 0 00-1.37-1.06 1.21 1.21 0 00-1 1.06l-2.87 17a2.29 2.29 0 01-2.68 1.8h-.3l-.27-.14A2.31 2.31 0 0172 68.21l-2.87-17a1.23 1.23 0 00-1.37-1.06 1.21 1.21 0 00-1 1.06l-2.87 17a2.303 2.303 0 11-4.52-.89L64 39.78a1.21 1.21 0 00-1-1.41 1.19 1.19 0 00-1.37 1l-1.63 10a1.41 1.41 0 01-2.81-.2zM18.57 24.54h33v45.28h-33zM95.9 89.62H18.08V72.79H95.9z"/><path class="prefix__prefix__b" d="M33.69 80.61h.74a1.59 1.59 0 001.78-1.36 2 2 0 000-.25 1.64 1.64 0 00-1.87-1.7c-1.25 0-2 .61-2 1.65v.34h-1.83v-.53c0-1.86 1.36-3.1 3.84-3.1s3.84 1.24 3.84 3.12a2.66 2.66 0 01-1.7 2.62 2.6 2.6 0 011.73 2.6c0 1.9-1.37 3.15-3.84 3.15s-3.87-1.18-3.87-3.1v-.53h1.89v.34c0 1 .7 1.65 2 1.65s1.89-.66 1.89-1.69-.7-1.6-1.84-1.6h-.74zM46.41 82l-3.61 3.38h5.26V87H40.3v-1.62l4.8-4.52a2.69 2.69 0 001-1.89 1.69 1.69 0 00-1.9-1.65 1.72 1.72 0 00-1.94 1.47 1.6 1.6 0 000 .38v.62h-2v-.62c0-2.31 1.49-3.49 3.86-3.49S48 76.86 48 78.92A4.1 4.1 0 0146.41 82zm6.92-8h1.56L50 88.83h-1.57zm11.1 13h-2.06l-.88-2.62h-4.42L56.19 87H54.3l3.91-11.2h2.32zm-6.85-4.27H61l-1.69-4.92zm16.42.5v.08c0 2.53-1.68 3.89-4.35 3.89s-4.37-1.41-4.37-4v-3.49c0-2.63 1.69-4 4.4-4S74 77 74 79.57v.06h-1.9v-.06a2.15 2.15 0 00-2-2.27 2.88 2.88 0 00-.41 0 2.23 2.23 0 00-2.49 1.94 2.26 2.26 0 000 .45v3.44a2.23 2.23 0 002 2.4 2.17 2.17 0 00.44 0 2.14 2.14 0 002.43-1.8 2.07 2.07 0 000-.43v-.08zm3.2-.13H80v-2.41h1.91v2.41h1.59v1.65h-1.63V87H80v-2.25h-4.7V83.1l3.51-7.26h2z"/><path d="M91.56 49.07h0l-2.29-13.5a2.21 2.21 0 00-2.21-2.11h-12.7a2.2 2.2 0 00-2.2 2.11l-2.29 13.5h0v.19a1.41 1.41 0 001.39 1.43h0a1.39 1.39 0 001.42-1.24h0l1.69-10h0a1.2 1.2 0 112.36.44h0l-4.62 27.55h0a2.303 2.303 0 004.52.89h0l2.87-17h0a1.23 1.23 0 011.37-1.06 1.21 1.21 0 011 1.06h0l2.87 17h0a2.303 2.303 0 004.52-.89h0l-4.54-27.55h0a1.2 1.2 0 012.36-.44h0l1.68 10h0a1.41 1.41 0 002.8-.19.61.61 0 000-.19z" fill="none" stroke="#007e53"/></svg>
