<svg id="prefix__prefix__Ebene_1" data-name="Ebene 1" xmlns="http://www.w3.org/2000/svg" viewBox="0 0 114 114"><defs><style>.prefix__prefix__cls-2{fill:#007e53}</style></defs><g id="prefix__prefix__ico_gv_nk_31_ac3" data-name="ico gv nk 31 ac3"><ellipse id="prefix__prefix__Ellipse_1" data-name="Ellipse 1" cx="56.21" cy="57.75" rx="51.45" ry="51.31" fill="#fff"/><g id="prefix__prefix__Gruppe_2" data-name="Gruppe 2"><path id="prefix__prefix__Pfad_1" data-name="Pfad 1" class="prefix__prefix__cls-2" d="M697.54 360.22h2.82v7.18h-2.82z" transform="translate(-677.44 -333.92)"/><path id="prefix__prefix__Pfad_2" data-name="Pfad 2" class="prefix__prefix__cls-2" d="M701.44 360.22h2.82v7.18h-2.82z" transform="translate(-677.44 -333.92)"/><path id="prefix__prefix__Pfad_3" data-name="Pfad 3" class="prefix__prefix__cls-2" d="M705.36 360.22h2.82v7.18h-2.82z" transform="translate(-677.44 -333.92)"/><path id="prefix__prefix__Pfad_4" data-name="Pfad 4" class="prefix__prefix__cls-2" d="M709.27 360.22h2.83v7.18h-2.82z" transform="translate(-677.44 -333.92)"/><path id="prefix__prefix__Pfad_5" data-name="Pfad 5" class="prefix__prefix__cls-2" d="M713.18 360.22H716v7.18h-2.82z" transform="translate(-677.44 -333.92)"/><path id="prefix__prefix__Pfad_6" data-name="Pfad 6" class="prefix__prefix__cls-2" d="M717.1 360.22h2.9v7.18h-2.9z" transform="translate(-677.44 -333.92)"/><path id="prefix__prefix__Pfad_7" data-name="Pfad 7" class="prefix__prefix__cls-2" d="M721 360.22h2.83v7.18H721z" transform="translate(-677.44 -333.92)"/><path id="prefix__prefix__Pfad_8" data-name="Pfad 8" class="prefix__prefix__cls-2" d="M724.94 360.22h2.83v7.18h-2.83z" transform="translate(-677.44 -333.92)"/><path id="prefix__prefix__Pfad_9" data-name="Pfad 9" class="prefix__prefix__cls-2" d="M697.54 371.1h2.82v7.19h-2.82z" transform="translate(-677.44 -333.92)"/><path id="prefix__prefix__Pfad_10" data-name="Pfad 10" class="prefix__prefix__cls-2" d="M701.44 371.1h2.82v7.19h-2.82z" transform="translate(-677.44 -333.92)"/><path id="prefix__prefix__Pfad_11" data-name="Pfad 11" class="prefix__prefix__cls-2" d="M705.36 371.1h2.82v7.19h-2.82z" transform="translate(-677.44 -333.92)"/><path id="prefix__prefix__Pfad_12" data-name="Pfad 12" class="prefix__prefix__cls-2" d="M709.27 371.1h2.83v7.19h-2.82z" transform="translate(-677.44 -333.92)"/><path id="prefix__prefix__Pfad_13" data-name="Pfad 13" class="prefix__prefix__cls-2" d="M713.18 371.1H716v7.19h-2.82z" transform="translate(-677.44 -333.92)"/><path id="prefix__prefix__Pfad_14" data-name="Pfad 14" class="prefix__prefix__cls-2" d="M717.1 371.1h2.9v7.19h-2.9z" transform="translate(-677.44 -333.92)"/><path id="prefix__prefix__Pfad_15" data-name="Pfad 15" class="prefix__prefix__cls-2" d="M721 371.1h2.83v7.19H721z" transform="translate(-677.44 -333.92)"/><path id="prefix__prefix__Pfad_16" data-name="Pfad 16" class="prefix__prefix__cls-2" d="M724.94 371.1h2.83v7.19h-2.83z" transform="translate(-677.44 -333.92)"/><path id="prefix__prefix__Pfad_17" data-name="Pfad 17" class="prefix__prefix__cls-2" d="M697.54 387.2h2.82v7.19h-2.82z" transform="translate(-677.44 -333.92)"/><path id="prefix__prefix__Pfad_18" data-name="Pfad 18" class="prefix__prefix__cls-2" d="M701.44 387.2h2.82v7.19h-2.82z" transform="translate(-677.44 -333.92)"/><path id="prefix__prefix__Pfad_19" data-name="Pfad 19" class="prefix__prefix__cls-2" d="M721 387.2h2.83v7.19H721z" transform="translate(-677.44 -333.92)"/><path id="prefix__prefix__Pfad_20" data-name="Pfad 20" class="prefix__prefix__cls-2" d="M724.94 387.2h2.83v7.19h-2.83z" transform="translate(-677.44 -333.92)"/><path id="prefix__prefix__Pfad_21" data-name="Pfad 21" class="prefix__prefix__cls-2" d="M706.1 386h6.08v16.54h-6.08z" transform="translate(-677.44 -333.92)"/><path id="prefix__prefix__Pfad_22" data-name="Pfad 22" class="prefix__prefix__cls-2" d="M713.29 386h6.08v16.54h-6.08z" transform="translate(-677.44 -333.92)"/><path id="prefix__prefix__Pfad_23" data-name="Pfad 23" class="prefix__prefix__cls-2" d="M774.74 350.61a57 57 0 100 80.62 57 57 0 000-80.62zM751 357.55a4 4 0 010 8v.05a4 4 0 010-8zm-10.8 25.37l2.24-13.53a2.23 2.23 0 012.2-2.12h12.8a2.23 2.23 0 012.16 2.15l2.28 13.5v.18a1.41 1.41 0 01-2.8.2l-1.64-10a1.25 1.25 0 00-1.41-1 1.2 1.2 0 00-1 1.37l4.61 27.62a2.3 2.3 0 11-4.52.89l-2.87-17a1.24 1.24 0 00-1.37-1.05 1.21 1.21 0 00-1 1.05l-2.87 17a2.3 2.3 0 11-4.52-.89l4.61-27.54a1.26 1.26 0 00-1-1.41 1.21 1.21 0 00-1.37 1l-1.69 10a1.43 1.43 0 01-1.57 1.24 1.41 1.41 0 01-1.24-1.44zM696 358.47h33v45.28h-33zm77.33 65.08h-77.81v-16.83h77.82z" transform="translate(-677.44 -333.92)"/><g id="prefix__prefix__Gruppe_1" data-name="Gruppe 1"><path id="prefix__prefix__Pfad_24" data-name="Pfad 24" class="prefix__prefix__cls-2" d="M730.1 414.54h.74a1.58 1.58 0 001.78-1.35v-.27a1.64 1.64 0 00-1.52-1.71h-.31c-1.25 0-2 .61-2 1.65v.34H727v-.53c0-1.86 1.36-3.1 3.84-3.1s3.84 1.24 3.84 3.12a2.67 2.67 0 01-1.7 2.62 2.64 2.64 0 011.73 2.6c0 1.9-1.37 3.15-3.84 3.15S727 419.91 727 418v-.53h1.89v.34c0 1 .7 1.64 2 1.64s1.89-.65 1.89-1.68-.7-1.6-1.84-1.6h-.8z" transform="translate(-677.44 -333.92)"/><path id="prefix__prefix__Pfad_25" data-name="Pfad 25" class="prefix__prefix__cls-2" d="M741 421h-1.9v-9.28l-2.88 2.06v-1.94l2.88-2h1.9z" transform="translate(-677.44 -333.92)"/></g></g></g></svg>