<svg id="prefix__prefix__Ebene_1" data-name="Ebene 1" xmlns="http://www.w3.org/2000/svg" viewBox="0 0 128.3 128.3"><defs><style>.prefix__prefix__cls-1{fill:#007e53}</style></defs><path class="prefix__prefix__cls-1" d="M87.51 51A13 13 0 0085 46.36a5.43 5.43 0 00-4.28-1.88 5.52 5.52 0 00-4.32 1.88A13 13 0 0073.79 51a26.78 26.78 0 00-1.24 6 54.91 54.91 0 000 11.84 26.78 26.78 0 001.24 6 13 13 0 002.6 4.64 5.52 5.52 0 004.32 1.88A5.43 5.43 0 0085 79.48a13 13 0 002.52-4.64 29.82 29.82 0 001.2-6q.32-3.28.32-6T88.71 57a30.52 30.52 0 00-1.2-6z" transform="translate(.01 .01)"/><path class="prefix__prefix__cls-1" d="M64.13 0a64.15 64.15 0 1064.16 64.15A64.15 64.15 0 0064.13 0zM53.34 91.32H40v-41.6l-10.58 8.16-7-9.52 18.67-13.68h12.25zm48.25-17a29 29 0 01-3.84 9.56 19.06 19.06 0 01-17 9 20.31 20.31 0 01-10.24-2.48 20 20 0 01-7-6.56 28.58 28.58 0 01-3.88-9.56 53 53 0 01-1.2-11.44 52 52 0 011.2-11.4A27.69 27.69 0 0163.55 42a20 20 0 016.92-6.44 20.39 20.39 0 0110.24-2.42 20.25 20.25 0 0110.2 2.4A19.9 19.9 0 0197.75 42a28.39 28.39 0 013.84 9.44 52.18 52.18 0 011.2 11.42 53 53 0 01-1.2 11.42z" transform="translate(.01 .01)"/></svg>