<svg data-name="Ebene 1" xmlns="http://www.w3.org/2000/svg" viewBox="0 0 128.3 128.3"><path d="M64.14.01a64.15 64.15 0 1064.16 64.15A64.15 64.15 0 0064.14.01zM47.8 72.25a53.43 53.43 0 01-2 10.1c-.93 3.31-2 6.57-2.77 9.89a38.28 38.28 0 00-1.09 10.11 87.46 87.46 0 003.07 20.21l-.32.08a53.6 53.6 0 01-3.69-9.8 47.35 47.35 0 01-1.16-5.15 40.87 40.87 0 01-.65-5.29 37.85 37.85 0 010-5.43 35.5 35.5 0 01.87-5.43c.77-3.5 1.88-6.76 2.81-10 .48-1.61.92-3.21 1.29-4.8a36 36 0 00.85-4.73 21.94 21.94 0 00.11-2.29c0-.78 0-1.58-.08-2.39-.09-1.61-.28-3.26-.51-4.93s-.49-3.36-.69-5.09-.37-3.5-.43-5.25a21.74 21.74 0 012-10.36l.29.09a23.42 23.42 0 00-.69 10.12c.4 3.39 1.2 6.72 1.88 10.08a38.05 38.05 0 01.91 10.26zm9.86-8.34c.07 10.22-1.66 20.36-3.09 30.43-.72 5-1.35 10.1-1.62 15.18a71.92 71.92 0 000 7.63c0 1.27.1 2.54.2 3.81a12.93 12.93 0 00.22 1.86 9.73 9.73 0 00.77 1.71l-.33.13a8.11 8.11 0 01-1.19-1.65 16.94 16.94 0 01-.57-2c-.14-.64-.32-1.26-.41-1.9l-.23-1.93a74.8 74.8 0 01-.41-7.78 147.65 147.65 0 011-15.44c1.16-10.17 2.7-20.1 2.6-30s-1.06-20.19-.44-30.6a70.18 70.18 0 012.3-15.45 68.82 68.82 0 016.1-14.23l.29.12a83.33 83.33 0 00-4.78 14.46 75.46 75.46 0 00-1.56 15.1c-.14 10.18 1.08 20.33 1.15 30.55zm12.75.16a143.27 143.27 0 01-1.71 15.18q-.63 3.77-1.43 7.47l-1.63 7.29c-.9 4.84-1.67 9.81-2.22 14.77-.26 2.48-.48 5-.58 7.46 0 1.24-.1 2.48-.06 3.72a12.46 12.46 0 00.51 3.64l-.28.13a12.78 12.78 0 01-.77-3.72c-.11-1.25-.15-2.51-.16-3.77 0-2.52.08-5 .24-7.53.33-5 .81-10 1.58-15a180 180 0 004-29.78 119.24 119.24 0 00-.4-15 92.6 92.6 0 01.09-15.08 62.72 62.72 0 012.9-14.73 28.8 28.8 0 013.29-6.82c.72-1.07 1.51-2 2.21-3a24.26 24.26 0 001.88-3.23h.29a6.13 6.13 0 01.19 4.61 7.37 7.37 0 01-1 1.85l-.34.48-.24.33c-.16.21-.32.42-.47.65a26.34 26.34 0 00-3 6.12 62.36 62.36 0 00-2.8 14.06 89 89 0 00-.24 14.6 113.53 113.53 0 01.15 15.3zm28.37 43.81a7.8 7.8 0 01-4.77-3.25 18.81 18.81 0 01-2.54-5.26 51.67 51.67 0 01-2-11.24c-.29-3.74-.48-7.47-.73-11.06a28.12 28.12 0 00-.69-5 3.17 3.17 0 00-.15-.5 10.2 10.2 0 00-1.82 3.58 24.26 24.26 0 00-1 5.67 28.22 28.22 0 00.38 6c.17 1 .36 2 .6 3s.52 1.84.85 3.15a22.09 22.09 0 01.52 7.2 33.87 33.87 0 01-1.24 6.78 47.91 47.91 0 01-2.18 6.2c-.82 2-1.82 4-2.82 6l-.3-.09a96.54 96.54 0 003.5-12.61 28.26 28.26 0 000-12.87 36 36 0 01-2.2-12.92 23.2 23.2 0 011-6.51 12.56 12.56 0 013.47-5.64 3.41 3.41 0 011.53-.36 2 2 0 011.41.63 5.62 5.62 0 011.21 2.63 32.39 32.39 0 01.6 5.56c.15 3.71.11 7.41.24 11.11a58 58 0 001.18 11 17.77 17.77 0 002 5.12 7.58 7.58 0 004.07 3.42zm5.38-6.35a9.39 9.39 0 01-3.33-4.26 19.65 19.65 0 01-1.09-5.36c-.15-1.8-.18-3.58-.3-5.29-.06-.85-.14-1.71-.27-2.51s-.29-1.72-.45-2.57a87 87 0 00-2.5-10.06c-1-3.32-2.17-6.58-3.28-10a89.54 89.54 0 01-2.78-10.47c-.34-1.77-.63-3.6-.86-5.35a25.38 25.38 0 00-1.19-4.63 22.1 22.1 0 00-2-4.3 11.24 11.24 0 00-1.22-1.7 3.53 3.53 0 00-1.12-.87.72.72 0 00-.61 0 1.86 1.86 0 00-.79.68 8.25 8.25 0 00-1.07 3.69c-.3 3.11-.13 6.63-.15 10.23a81 81 0 01-.88 10.89c-1 7.12-2.91 14.07-4.24 20.76a104.65 104.65 0 00-1.15 20.62v4a10.86 10.86 0 01-.06 1.42 53.64 53.64 0 01-.81 5.36c-.34 1.73-.69 3.45-.89 5.16a17 17 0 00.08 5.18l-.29.09a15.5 15.5 0 01-.56-5.29c.07-1.76.27-3.52.46-5.27s.4-3.49.44-5.24-.15-3.51-.21-5.26a100.87 100.87 0 01.47-21.17c1.24-7 2.94-13.79 3.88-20.75a76.92 76.92 0 00.77-10.5 98.44 98.44 0 01.15-10.55 10.85 10.85 0 011.64-5.06 4.87 4.87 0 012.21-1.75 3.71 3.71 0 012.78 0 8.74 8.74 0 013.75 3.86 26.08 26.08 0 012.09 4.89 28.88 28.88 0 011.23 5.18c.2 1.75.44 3.48.75 5.21a94.74 94.74 0 002.45 10.24 131.26 131.26 0 015.14 20.49 37.5 37.5 0 01.44 5.29c0 1.77-.06 3.53 0 5.28a18.38 18.38 0 00.73 5.16 8.83 8.83 0 002.83 4.26zm6.33-10.21c-.83-6.48-.83-13.09-2.17-19.32a37.52 37.52 0 00-3.07-8.92 78 78 0 00-5.36-8 20.38 20.38 0 01-2.34-4.75 36.89 36.89 0 01-1.33-5c-.33-1.66-.58-3.32-.79-5l-.27-2.32-.15-1.23a5.69 5.69 0 00-.22-1.22 43.79 43.79 0 01-1.15-9.68 32.09 32.09 0 011.37-9.93h.3c1 6.45 1.65 13 2 19.45.26 3.24.54 6.48 1.1 9.68a24.75 24.75 0 003.1 9.07 71.11 71.11 0 015.2 8.29 38.41 38.41 0 012.84 9.37c1.12 6.46.79 13 1.26 19.5z" fill="#007e53"/></svg>
