<svg data-name="Ebene 1" xmlns="http://www.w3.org/2000/svg" viewBox="0 0 128.3 128.3"><path d="M64.14.01a64.15 64.15 0 1064.16 64.15A64.15 64.15 0 0064.14.01zM52.91 91.33H39.55v-41.6l-10.54 8.16-7-9.52 18.65-13.68h12.25zm46.73 0h-41V80.15l22.08-20a20.76 20.76 0 003.36-4.07 8.67 8.67 0 001.28-4.63 6.56 6.56 0 00-1.92-4.91 7.71 7.71 0 00-10.6.48 10.69 10.69 0 00-2.52 6.2l-12.84-1.73a20.32 20.32 0 012.36-7.7 20 20 0 014.76-5.78 20.55 20.55 0 016.6-3.62 24.68 24.68 0 017.88-1.25 27.94 27.94 0 017.6 1 19.76 19.76 0 016.56 3.2 16 16 0 014.6 5.44 16.29 16.29 0 011.72 7.68 17.64 17.64 0 01-.8 5.48 18.21 18.21 0 01-2.2 4.52 25.67 25.67 0 01-3.2 3.88q-1.8 1.8-3.72 3.56L76.52 79.65h23.12z" fill="#007e53"/></svg>