<svg xmlns="http://www.w3.org/2000/svg" viewBox="0 0 114 114"><defs><style>.prefix__prefix__b{fill:#007e53}</style></defs><ellipse cx="56.06" cy="56.86" rx="50.96" ry="51.31" fill="#fff"/><path class="prefix__prefix__b" d="M20.1 26.3h2.82v7.18H20.1zm3.9 0h2.82v7.18H24zm3.92 0h2.82v7.18h-2.82zm3.91 0h2.82v7.18h-2.82zm3.91 0h2.82v7.18h-2.82zm3.91 0h2.85v7.18h-2.82zm3.91 0h2.83v7.18h-2.83zm3.94 0h2.83v7.18H47.5zM20.1 37.18h2.82v7.19H20.1zm3.9 0h2.82v7.19H24zm3.92 0h2.82v7.19h-2.82zm3.91 0h2.82v7.19h-2.82zm3.91 0h2.82v7.19h-2.82zm3.91 0h2.85v7.19h-2.82zm3.91 0h2.83v7.19h-2.83zm3.94 0h2.83v7.19H47.5zm-27.4 16.1h2.82v7.19H20.1zm3.9 0h2.82v7.19H24zm19.56 0h2.83v7.19h-2.83zm3.94 0h2.83v7.19H47.5zm-18.82-1.19h6.08v16.54h-6.08zm7.17 0h6.08v16.54h-6.08z"/><path class="prefix__prefix__b" d="M97.3 16.69a57 57 0 100 80.62 57 57 0 000-80.62zm-23.7 6.94a4 4 0 010 8v.05a4 4 0 010-8zM62.76 49L65 35.47a2.22 2.22 0 012.2-2.12H80a2.21 2.21 0 012.16 2.15L84.44 49v.18a1.41 1.41 0 01-2.8.2l-1.64-10a1.24 1.24 0 00-1.41-1 1.21 1.21 0 00-1 1.37l4.61 27.62a2.303 2.303 0 01-4.52.89l-2.87-17a1.22 1.22 0 00-2.42 0l-2.87 17a2.303 2.303 0 01-4.52-.89l4.67-27.54a1.24 1.24 0 00-1-1.41 1.21 1.21 0 00-1.37 1l-1.69 10a1.41 1.41 0 01-2.81-.2zM18.57 24.55h33v45.28h-33zM95.9 89.63H18.08V72.8H95.9z"/><path class="prefix__prefix__b" d="M35.68 80.62h.74a1.58 1.58 0 001.78-1.35 2.44 2.44 0 000-.27 1.64 1.64 0 00-1.87-1.7c-1.25 0-2 .61-2 1.65v.34H32.5v-.53c0-1.86 1.36-3.1 3.84-3.1s3.84 1.24 3.84 3.12a2.66 2.66 0 01-1.7 2.62 2.6 2.6 0 011.73 2.6c0 1.9-1.37 3.15-3.84 3.15S32.5 86 32.5 84.09v-.53h1.89v.34c0 1 .7 1.64 2 1.64s1.89-.65 1.89-1.68-.7-1.6-1.84-1.6h-.74zm10.87 6.43h-1.89v-9.28l-2.88 2.06v-1.92l2.88-2.06h1.89zm5.34-13h1.57l-4.9 14.79H47zm11.11 13h-2.07l-.88-2.63h-4.42l-.88 2.63h-1.88l3.9-11.2h2.32zm-6.85-4.27h3.39l-1.7-4.92zm16.45.46v.08c0 2.53-1.68 3.89-4.36 3.89s-4.37-1.41-4.37-4v-3.49c0-2.63 1.7-4 4.41-4s4.32 1.36 4.32 3.89v.06h-1.91v-.06a2.14 2.14 0 00-2-2.26 1.79 1.79 0 00-.4 0 2.23 2.23 0 00-2.49 1.94 2.26 2.26 0 000 .45v3.44a2.21 2.21 0 002 2.39 2.17 2.17 0 00.44 0c1.52 0 2.45-.78 2.45-2.22v-.08zm4.94-2.62h.74a1.58 1.58 0 001.78-1.35 2.44 2.44 0 000-.27 1.64 1.64 0 00-1.87-1.7c-1.24 0-2 .61-2 1.65v.34h-1.84v-.53c0-1.86 1.36-3.1 3.85-3.1s3.8 1.27 3.8 3.15a2.66 2.66 0 01-1.7 2.62 2.61 2.61 0 011.7 2.63c0 1.9-1.38 3.15-3.84 3.15s-3.81-1.21-3.81-3.12v-.53h1.89v.34c0 1 .71 1.64 2 1.64s1.89-.65 1.89-1.68-.71-1.6-1.84-1.6h-.74z"/></svg>
