<svg xmlns="http://www.w3.org/2000/svg" viewBox="0 0 109.24 122.05"><defs><clipPath id="prefix__a" transform="translate(-2.07)"><path fill="none" d="M-11.91 0H118.6v122.06H-11.91z"/></clipPath><style>.prefix__d{isolation:isolate}.prefix__e{fill:#048e62}</style></defs><g clip-path="url(#prefix__a)"><path d="M18.25 100.71C28.67 81.58 46.71 57.4 61.5 47.65c-15.4 15.86-40.43 66.29-21.09 66 69.84-4.47 55.3-65.72 67.52-113.65C60.85 8.94 34.64 3.81 10 40.81-4.75 65.53 5 89.5 11 97.54 16.57 107 .46 117 .93 121.54c.37 3.42 12.09-11.28 17.3-20.85" fill="#ceced0"/></g><g class="prefix__d"><path class="prefix__e" d="M22.87 39.73a12.13 12.13 0 01-.86 4.61 10.92 10.92 0 01-6 6 11.75 11.75 0 01-4.55.87 11.73 11.73 0 01-4.53-.82 10.92 10.92 0 01-6-6 12.81 12.81 0 010-9.23 10.92 10.92 0 016-6.05 11.73 11.73 0 014.54-.87 11.75 11.75 0 014.55.87 10.92 10.92 0 016 6.05 12.14 12.14 0 01.85 4.57zm-2.35 0a10.85 10.85 0 00-.59-3.64A9.16 9.16 0 0018.1 33a8.79 8.79 0 00-2.87-2 9.08 9.08 0 00-3.8-.77 9.07 9.07 0 00-3.79.77 8.79 8.79 0 00-2.87 2 9.16 9.16 0 00-1.84 3.09 11.05 11.05 0 000 7.3 9 9 0 001.8 3 8.79 8.79 0 006.66 2.84 8.79 8.79 0 006.67-2.84 9 9 0 001.8-3 10.8 10.8 0 00.66-3.65zM30.62 28.75h2.24v9.52h12v-9.52h2.23v22h-2.27V40.32h-12V50.7h-2.2zM71.54 47.45h.06v-18.7h2.24v22h-2.79L58.27 31.82h-.06V50.7h-2.23v-22h2.79zM85 48.72h11.75v2h-14v-22h13.62v2H85v7.53h10.63v2H85z"/></g><g class="prefix__d"><path class="prefix__e" d="M26.6 66.69a10.21 10.21 0 01-1.08 4.91 8.8 8.8 0 01-2.92 3.22 12.8 12.8 0 01-4.23 1.79 21.91 21.91 0 01-5 .56h-4v12.55h-8V56.44h12.21a22.93 22.93 0 015.1.54 12.08 12.08 0 014.14 1.74 8.44 8.44 0 012.77 3.15 10.45 10.45 0 011.01 4.82zm-8 0a3.52 3.52 0 00-.47-1.93 3.29 3.29 0 00-1.27-1.18 5.57 5.57 0 00-1.81-.56 15.72 15.72 0 00-2.12-.09H9.4v7.85h3.38a11.65 11.65 0 002.15-.19 5.56 5.56 0 001.86-.66 3.49 3.49 0 001.29-1.24 3.66 3.66 0 00.48-1.95z"/></g><g class="prefix__d"><g class="prefix__d"><path class="prefix__e" d="M53.8 87.72h-7.7L34.05 55.86h8.63l7.39 22.59h.17l7.34-22.59h8.51z"/></g><g class="prefix__d"><path class="prefix__e" d="M94.93 87.16a17.17 17.17 0 01-7.16 1.42 18.61 18.61 0 01-6.84-1.22 15.93 15.93 0 01-5.42-3.44 16.2 16.2 0 01-3.58-5.34 18.68 18.68 0 010-13.77 15.24 15.24 0 013.67-5.28 16.15 16.15 0 015.49-3.36A19.33 19.33 0 0187.93 55a19.13 19.13 0 016.64 1.2 12.76 12.76 0 015.29 3.48l-5.24 5.22a6.6 6.6 0 00-2.84-2.2 9.4 9.4 0 00-3.6-.72 9.17 9.17 0 00-3.71.74 8.87 8.87 0 00-2.91 2 9.51 9.51 0 00-1.88 3.08 10.69 10.69 0 00-.68 3.9 11.05 11.05 0 00.68 4 9.33 9.33 0 001.86 3.08 8.53 8.53 0 002.86 2 9.08 9.08 0 003.65.72 8.46 8.46 0 004-.9 7.87 7.87 0 002.75-2.34l5.35 5a15.23 15.23 0 01-5.22 3.9z"/></g></g><text transform="translate(103.09 64.56)" style="isolation:isolate" font-size="14" font-family="FiraSans-Regular,Fira Sans" fill="#048e62">*</text></svg>
