<svg id="prefix__prefix__Ebene_1" data-name="Ebene 1" xmlns="http://www.w3.org/2000/svg" viewBox="0 0 114 114"><defs><style>.prefix__prefix__cls-2{fill:#007e53}</style></defs><g id="prefix__prefix__ico_gv_nk_32_ac4" data-name="ico gv nk 32 ac4"><ellipse id="prefix__prefix__Ellipse_2" data-name="Ellipse 2" cx="57.21" cy="57.21" rx="50.96" ry="51.31" fill="#fff"/><g id="prefix__prefix__Gruppe_4" data-name="Gruppe 4"><path id="prefix__prefix__Pfad_30" data-name="Pfad 30" class="prefix__prefix__cls-2" d="M688.76 332.47h2.82v7.18h-2.82z" transform="translate(-668.66 -306.15)"/><path id="prefix__prefix__Pfad_31" data-name="Pfad 31" class="prefix__prefix__cls-2" d="M692.66 332.47h2.82v7.18h-2.82z" transform="translate(-668.66 -306.15)"/><path id="prefix__prefix__Pfad_32" data-name="Pfad 32" class="prefix__prefix__cls-2" d="M696.58 332.47h2.82v7.18h-2.82z" transform="translate(-668.66 -306.15)"/><path id="prefix__prefix__Pfad_33" data-name="Pfad 33" class="prefix__prefix__cls-2" d="M700.49 332.47h2.82v7.18h-2.82z" transform="translate(-668.66 -306.15)"/><path id="prefix__prefix__Pfad_34" data-name="Pfad 34" class="prefix__prefix__cls-2" d="M704.4 332.47h2.82v7.18h-2.82z" transform="translate(-668.66 -306.15)"/><path id="prefix__prefix__Pfad_35" data-name="Pfad 35" class="prefix__prefix__cls-2" d="M708.31 332.47h2.83v7.18h-2.83z" transform="translate(-668.66 -306.15)"/><path id="prefix__prefix__Pfad_36" data-name="Pfad 36" class="prefix__prefix__cls-2" d="M712.22 332.47h2.83v7.18h-2.83z" transform="translate(-668.66 -306.15)"/><path id="prefix__prefix__Pfad_37" data-name="Pfad 37" class="prefix__prefix__cls-2" d="M716.13 332.47H719v7.18h-2.83z" transform="translate(-668.66 -306.15)"/><path id="prefix__prefix__Pfad_38" data-name="Pfad 38" class="prefix__prefix__cls-2" d="M688.76 343.32h2.82v7.15h-2.82z" transform="translate(-668.66 -306.15)"/><path id="prefix__prefix__Pfad_39" data-name="Pfad 39" class="prefix__prefix__cls-2" d="M692.66 343.32h2.82v7.15h-2.82z" transform="translate(-668.66 -306.15)"/><path id="prefix__prefix__Pfad_40" data-name="Pfad 40" class="prefix__prefix__cls-2" d="M696.58 343.32h2.82v7.15h-2.82z" transform="translate(-668.66 -306.15)"/><path id="prefix__prefix__Pfad_41" data-name="Pfad 41" class="prefix__prefix__cls-2" d="M700.49 343.32h2.82v7.15h-2.82z" transform="translate(-668.66 -306.15)"/><path id="prefix__prefix__Pfad_42" data-name="Pfad 42" class="prefix__prefix__cls-2" d="M704.4 343.32h2.82v7.15h-2.82z" transform="translate(-668.66 -306.15)"/><path id="prefix__prefix__Pfad_43" data-name="Pfad 43" class="prefix__prefix__cls-2" d="M708.31 343.32h2.83v7.15h-2.83z" transform="translate(-668.66 -306.15)"/><path id="prefix__prefix__Pfad_44" data-name="Pfad 44" class="prefix__prefix__cls-2" d="M712.22 343.32h2.83v7.15h-2.83z" transform="translate(-668.66 -306.15)"/><path id="prefix__prefix__Pfad_45" data-name="Pfad 45" class="prefix__prefix__cls-2" d="M716.13 343.32H719v7.15h-2.83z" transform="translate(-668.66 -306.15)"/><path id="prefix__prefix__Pfad_46" data-name="Pfad 46" class="prefix__prefix__cls-2" d="M688.76 359.47h2.82v7.19h-2.82z" transform="translate(-668.66 -306.15)"/><path id="prefix__prefix__Pfad_47" data-name="Pfad 47" class="prefix__prefix__cls-2" d="M692.66 359.47h2.82v7.19h-2.82z" transform="translate(-668.66 -306.15)"/><path id="prefix__prefix__Pfad_48" data-name="Pfad 48" class="prefix__prefix__cls-2" d="M712.22 359.47H715v7.19h-2.75z" transform="translate(-668.66 -306.15)"/><path id="prefix__prefix__Pfad_49" data-name="Pfad 49" class="prefix__prefix__cls-2" d="M716.13 359.47H719v7.19h-2.83z" transform="translate(-668.66 -306.15)"/><path id="prefix__prefix__Pfad_50" data-name="Pfad 50" class="prefix__prefix__cls-2" d="M697.34 358.23h6.08v16.54h-6.08z" transform="translate(-668.66 -306.15)"/><path id="prefix__prefix__Pfad_51" data-name="Pfad 51" class="prefix__prefix__cls-2" d="M704.51 358.23h6.08v16.54h-6.08z" transform="translate(-668.66 -306.15)"/><path id="prefix__prefix__Pfad_52" data-name="Pfad 52" class="prefix__prefix__cls-2" d="M743 345.61l-1.22 7.27 1.21 7.33 1.23-7.35z" transform="translate(-668.66 -306.15)"/><path id="prefix__prefix__Pfad_53" data-name="Pfad 53" class="prefix__prefix__cls-2" d="M766 322.84a57 57 0 100 80.62 57 57 0 000-80.62zm-20.09 10.53a4 4 0 113.48 4.46 4 4 0 01-3.48-4.46zm-9.21-3.6a4 4 0 010 8v.05a4 4 0 010-8zm-10.89 25.38l2.28-13.5a2.2 2.2 0 012.2-2.12H743a1.9 1.9 0 01.58.09h12.18a2.21 2.21 0 012.21 2.11l2.29 13.5a.6.6 0 010 .19 1.39 1.39 0 01-1.45 1.36 1.41 1.41 0 01-1.35-1.17l-1.68-10a1.2 1.2 0 10-2.36.44L758 373.6a2.3 2.3 0 01-4.52.89l-2.87-17a1.23 1.23 0 00-1.37-1.06 1.21 1.21 0 00-1 1.06l-2.87 17a2.29 2.29 0 01-2.68 1.8h-.3l-.27-.14a2.33 2.33 0 01-1.43-1.79l-2.87-17a1.23 1.23 0 00-1.37-1.06 1.21 1.21 0 00-1 1.06l-2.87 17a2.3 2.3 0 01-4.52-.89l4.63-27.54a1.21 1.21 0 00-1-1.41 1.19 1.19 0 00-1.37 1l-1.63 10a1.41 1.41 0 01-2.81-.2zm-38.54-24.46h33V376h-33zm77.33 65.08h-77.86v-16.83h77.82z" transform="translate(-668.66 -306.15)"/><g id="prefix__prefix__Gruppe_3" data-name="Gruppe 3"><path id="prefix__prefix__Pfad_54" data-name="Pfad 54" class="prefix__prefix__cls-2" d="M719.35 386.76h.74a1.59 1.59 0 001.78-1.36 1 1 0 000-.25 1.64 1.64 0 00-1.56-1.72 1.62 1.62 0 00-.31 0c-1.25 0-2 .61-2 1.65v.34h-1.83v-.53c0-1.86 1.36-3.1 3.84-3.1s3.84 1.24 3.84 3.12a2.67 2.67 0 01-1.7 2.62 2.59 2.59 0 011.73 2.6c0 1.9-1.37 3.15-3.84 3.15s-3.87-1.18-3.87-3.1v-.53h1.89v.35c0 1 .7 1.65 2 1.65S722 391 722 390s-.7-1.6-1.84-1.6h-.74z" transform="translate(-668.66 -306.15)"/><path id="prefix__prefix__Pfad_55" data-name="Pfad 55" class="prefix__prefix__cls-2" d="M732.07 388.15l-3.61 3.38h5.26v1.62H726v-1.62l4.8-4.52a2.71 2.71 0 001-1.89 1.69 1.69 0 00-1.72-1.67h-.18a1.72 1.72 0 00-1.94 1.46 2.41 2.41 0 000 .38v.62h-2v-.62c0-2.31 1.49-3.49 3.86-3.49s3.88 1.18 3.88 3.24a4.1 4.1 0 01-1.63 3.11z" transform="translate(-668.66 -306.15)"/></g><path id="prefix__prefix__Pfad_60" data-name="Pfad 60" d="M760.22 355.22h0l-2.29-13.5a2.21 2.21 0 00-2.21-2.11H743a2.2 2.2 0 00-2.2 2.11l-2.29 13.5h0v.19a1.41 1.41 0 001.39 1.43h0a1.39 1.39 0 001.42-1.24h0l1.69-10h0a1.2 1.2 0 112.36.44h0l-4.62 27.55h0a2.3 2.3 0 004.52.89h0l2.87-17h0a1.23 1.23 0 011.37-1.06 1.21 1.21 0 011 1.06h0l2.87 17h0a2.3 2.3 0 004.52-.89h0L753.38 346h0a1.2 1.2 0 112.36-.44h0l1.68 10h0a1.41 1.41 0 002.8-.19.6.6 0 000-.15z" transform="translate(-668.66 -306.15)" fill="none" stroke="#007e53"/></g></g></svg>
