<svg id="prefix__prefix__Link" xmlns="http://www.w3.org/2000/svg" viewBox="0 0 399.59 260.47"><defs><clipPath id="prefix__prefix__clip-path" transform="translate(-108.1 -155.74)"><path fill="none" d="M107.89 368.42h400v48h-400z"/></clipPath><style>.prefix__prefix__cls-2{fill:#fff}.prefix__prefix__cls-3{fill:#005ca9}</style></defs><circle class="prefix__prefix__cls-2" cx="307.71" cy="255.75" r="100" transform="rotate(-3.62 -2210.177 1888.537)"/><g id="prefix__prefix__BlauerEngel2018_Blau"><path class="prefix__prefix__cls-3" d="M160.74 32.17l-4.77-5.18 2.22 6.68 2.55-1.5z"/><path class="prefix__prefix__cls-3" d="M249.41 209.24a3.21 3.21 0 00.82-1.79 2.21 2.21 0 00-1-1.75 3.14 3.14 0 00-1-.6 2 2 0 00-.89-.08 1.92 1.92 0 00-.78.34 4.32 4.32 0 00-.73.7l-.85 1 3.69 3.07zM307 174.6a2.63 2.63 0 001.79-.57 2.34 2.34 0 00.59-1.85 1.94 1.94 0 00-2.19-2.17h-1.54l.08 4.59zm-63.49 26.83a2 2 0 00-1.57-.6 2.73 2.73 0 00-1.5 1.07l-.69.83 3.18 2.65.53-.64a3.26 3.26 0 00.9-1.82 1.94 1.94 0 00-.85-1.49z" transform="translate(-108.1 -155.74)"/><path class="prefix__prefix__cls-3" d="M141.62 158.64l2.63-3.94-4.01 2.51 1.38 1.43z"/><path class="prefix__prefix__cls-3" d="M245.58 304.81a4.65 4.65 0 00.84-.95 1.4 1.4 0 00.22-.87 1.91 1.91 0 00-.41-1l-.53-.7-6.51 4.84.56.74a1.94 1.94 0 00.72.65 1.28 1.28 0 00.48.09 1.69 1.69 0 00.38 0 4.08 4.08 0 001.19-.53c.47-.28 1-.67 1.68-1.15s1-.78 1.38-1.12z" transform="translate(-108.1 -155.74)"/><path class="prefix__prefix__cls-3" d="M307.71 159a96.78 96.78 0 1096.77 96.77A96.77 96.77 0 00307.71 159zm71.36 43.42l2.09 3-11.61 8 3.43 5-2.54 1.74-.08-.12-5.43-7.88zm-71.16 28.27a5.68 5.68 0 00-.61 11.31c-8.69 0-24.2 1.16-30.23 1.82a33.52 33.52 0 0161.28 0c-5.94-.66-21.08-1.75-29.84-1.83a5.68 5.68 0 00-.6-11.34zm-33.7-11.43c-10 13-16.56 15.89-18 15.19-1.11-1.11-4.6-15.47 10-23.28-1.54 5.44-2 8.2-3.91 11.85 3.78-2.08 7.59-2.92 11.91-3.79zm12.88-7c-12.26 6.91-19.18 5.88-20.11 4.76l-.05-.12c-.51-1.32 4-11.47 16.61-13.91-2 3.7-4.68 4.6-7.64 8a36.71 36.71 0 0111.19 1.27zm-22.58 20.39c-6 15.33-12.2 20.67-13.87 20.39l-.14-.08c-1.46-.83-7.05-14.92 1.88-27.87 1.18 5.19 1.3 9.28 1.37 15 2.94-3.36 6.9-5.16 10.76-7.44zm-14.2 25.86a45 45 0 018.5-9.34c-.95 12.84-3.82 23-5.81 23.15-1.75 0-12.45-8.37-10.64-27.33 4.04 4.46 5.77 8.64 7.95 13.52zm5.69 20.07a43.83 43.83 0 012.47-14.25c5.6 10.86 6.82 24.22 5.69 25.05l-.29.22c-.58.38-22.22-2.16-21.94-24.74 6.55 5.85 10.57 10.19 14.07 13.72zm12.15 15.94c-1.38-2.69-1.39-6.68-1.75-12.08 9.46 4 13.12 17.51 13 18.18l-.07.14c-.35.57-16.87 7.85-30-13.16 5.67.68 14.47 5.45 18.82 6.92zm6-37.1a33.39 33.39 0 011.85-10.91c6.9.22 20-2.1 25.09 4.76 8.49 11.51.31 31.55-3.79 38a33.55 33.55 0 01-23.11-31.85zm72.95-49.33c8.41 3.59 9.32 11.9 8.73 12.75l-.05.07c-.84.65-5.88.33-13.31-6.36a26.63 26.63 0 018.07.79c-1.46-2.82-2.65-4.34-3.4-7.25zm10.74 7.83c8.72 7.71 6.62 18.57 5.6 19.42l-.09.08c-1.26.5-7.18-1.79-13.54-13a32 32 0 019.38 4c-.68-4.16-1.52-6.57-1.31-10.5zm9.55 13.3c5.51 12.07-1.2 23-2.53 23.45h-.12c-1.43 0-5.76-5.36-8.52-19 2.87 2.46 5.89 4.54 7.83 7.77a55.62 55.62 0 013.38-12.22zm-31.86-22c5.43-1.42 9.19.86 10.57 5.22-4.52-.64-8.94-1.92-10.53-5.25zm-21.26 44.08c5.06-6.85 18.19-4.54 25.1-4.76a33.55 33.55 0 01-21.27 42.76c-4.1-6.48-12.28-26.52-3.79-38.03zm33.84 31.46c-.36 5.41-.37 9.4-1.76 12.08 4.36-1.46 13.16-6.24 18.82-6.91-13.1 21-29.62 13.73-30 13.15l-.07-.13c-.1-.71 3.59-14.17 13.05-18.22zm1.66 7.53l-.27-.23c-1.07-.83 1-13.65 7.2-23.95a40.31 40.31 0 011.55 13.79c3.69-3.31 8.75-10.43 14-13.58-3.18 20.82-21.9 24.32-22.44 23.94zm11.23-16.7c-1.85-.38-3.83-13.39-3.39-27a39.52 39.52 0 016.64 11.95 83.5 83.5 0 019.2-14c1.02 15.32-10.84 29.3-12.45 29.05zm15-75.06l-2.22 2.13-4.17-4.35-2.67 2.55 3.93 4.1-2.22 2.13-3.94-4.09-3.07 3 4.33 4.53-2.22 2.12-6.89-7.19 12.41-11.88zm-20-15.12a4.5 4.5 0 012.45-.28 6.34 6.34 0 012.58 1.2 5.32 5.32 0 012.48 3.59 5.93 5.93 0 01-1.38 4l-.08.12-2.87-2.1.09-.11a4.38 4.38 0 00.47-.82 3 3 0 00.25-.9 2 2 0 00-.07-.85 1.27 1.27 0 00-.51-.67 1.71 1.71 0 00-2.08.06 13.33 13.33 0 00-3.13 3.35c-.6.81-1.12 1.57-1.54 2.26a9.94 9.94 0 00-1 1.86 2.92 2.92 0 00-.21 1.42 1.48 1.48 0 00.64 1 1.46 1.46 0 00.59.24 1.9 1.9 0 00.79 0 2.65 2.65 0 00.88-.35 2.83 2.83 0 00.83-.8l.94-1.27-1.76-1.36 1.65-2.25 4.67 3.42-.08.12-5.47 7.46-2.25-1.65.77-1.06a3.51 3.51 0 01-1.74.14 4.81 4.81 0 01-2-.92 5.35 5.35 0 01-1.78-2 3.87 3.87 0 01-.25-2.35 8.78 8.78 0 011.07-2.75 37.21 37.21 0 012.14-3.24 22 22 0 012.45-2.87 7.77 7.77 0 012.46-1.64zm-11.27-8.26l-1.18 11.64 4.72-10 3.08 1.46-.06.13-7.3 15.39-3.78-1.77 1.25-11.88-4.83 10.18-3.08-1.46.06-.13 7.3-15.38zm-22.47 10.39l4.44-16.44 9.38 2.53-.8 3-5.87-1.63-1 3.56 5.48 1.48-.8 3-5.49-1.48-1.11 4.11 6.06 1.63-.81 3-9.61-2.59zm2.1 29.74c-3.72.79-8-2.21-11.91-5.77 4.28-1.66 8.84.12 11.86 5.77zm-17.25-7.4a26.47 26.47 0 016.13 5.41c-11.05-1.8-14.72-5.26-14.7-6.21V207c.38-.87 8.51-4.66 17.42-.51-3.13 1-5.34.97-8.9 1.39zm1.4-40.68a4.85 4.85 0 013.29 1.06 4.38 4.38 0 011.28 3.36 5.24 5.24 0 01-.66 2.87 3.25 3.25 0 01-1.71 1.34 2.85 2.85 0 011.47.75 3.63 3.63 0 01.8 2.13c0 .32.07.66.09 1s0 .79.07 1.24c0 .89.1 1.57.17 2a1.17 1.17 0 00.56.86h.07v.37l-3.91.06v-.06a1.89 1.89 0 01-.37-.87c-.05-.31-.09-.64-.11-1l-.15-3.24a2.57 2.57 0 00-.49-1.47 1.65 1.65 0 00-1.35-.49h-1.74l.12 7.14-3.69.06-.28-17.17zM292.24 207a29.2 29.2 0 018.09 4c-12.21 1.33-17.11-1.3-17.38-2.33v-.1c.14-1 7.59-7.5 18.24-5.67-2.98 2.02-5.31 2.64-8.95 4.1zm4.83-39.34l.53 3-5.94 1 .64 3.64 5.59-1 .53 3-5.59 1 .74 4.2 6.17-1.09.54 3-9.81 1.73-3-16.92zm-21.66 5.49l4.06 11.21a7 7 0 00.47 1.06 2.46 2.46 0 00.57.72 1.49 1.49 0 00.72.33 1.85 1.85 0 00.93-.11 1.75 1.75 0 00.79-.51 1.54 1.54 0 00.33-.72 2.41 2.41 0 000-.92 6.86 6.86 0 00-.31-1.1l-4.07-11.21 3.47-1.26 4.07 11.21a7 7 0 01.49 2.71 4.17 4.17 0 01-2 3.46 10.23 10.23 0 01-1.85.9 10.88 10.88 0 01-2 .51 4 4 0 01-.69.05 4.14 4.14 0 01-1.26-.19 4.1 4.1 0 01-1.75-1.17 7.3 7.3 0 01-1.4-2.5l-4.06-11.21zm-11.28 5.28L276.77 191l-3.32 1.95-2.45-2.72-3.67 2.17 1.14 3.47-3.31 2-4.81-17.11zM249.07 189l9.13 10.74 4.6-3.91 2 2.34-7.4 6.3-11.13-13.08zM239 199.29a8.66 8.66 0 011.42-1.37 4.14 4.14 0 011.58-.74 3.38 3.38 0 011.72.09 5.29 5.29 0 011.84 1 4.42 4.42 0 011.45 2.07 3.26 3.26 0 010 2 3.38 3.38 0 012.07-.7 4.33 4.33 0 012.71 1.14 7.12 7.12 0 011.31 1.44 4 4 0 01.66 1.75 4.54 4.54 0 01-.22 2 7.14 7.14 0 01-1.31 2.23l-3.77 4.52-13.2-11zm2.29 110.89a3 3 0 01-1.45-.36 4.89 4.89 0 01-1.53-1.42l-2.36-3.16 9.81-7.3 2.45 3.28a4.49 4.49 0 01.9 1.93 3.15 3.15 0 01-.23 1.74 5.68 5.68 0 01-1.16 1.6 17 17 0 01-1.84 1.56 17.32 17.32 0 01-2.33 1.49 5.31 5.31 0 01-2 .63zm5.73 8.27l1.43-2.15-2.05-2.12-2.2 1.36-2-2 11-6.18 2.23 2.3-6.43 10.81zm15.86-.34a3.9 3.9 0 01-.73 1.37l-.3.37-2-1.63.09-.11a2.4 2.4 0 00.56-1.14 1 1 0 00-.44-.86 1.44 1.44 0 00-.55-.3.92.92 0 00-.46 0 1 1 0 00-.39.18 2.26 2.26 0 00-.34.35 1.49 1.49 0 00-.37.8 1.92 1.92 0 00.33 1.08l.94 1.79a6.26 6.26 0 01.49 1.23 3.07 3.07 0 01.1 1 2.47 2.47 0 01-.25.93 5 5 0 01-.57.87 3.46 3.46 0 01-2.66 1.51 5.09 5.09 0 01-3-1.28 4.18 4.18 0 01-1.77-2.62 3.62 3.62 0 011-2.63l.39-.49 2.1 1.69-.31.38a3.83 3.83 0 00-.41.61 1.17 1.17 0 00-.15.55 1.11 1.11 0 00.13.52 1.87 1.87 0 00.49.55 1.4 1.4 0 00.9.32 1.23 1.23 0 00.94-.54 1.74 1.74 0 00.33-.56 1.21 1.21 0 000-.57 2.08 2.08 0 00-.23-.71 9.84 9.84 0 00-.53-.93 8.66 8.66 0 01-.73-1.35 3.81 3.81 0 01-.3-1.23 2.68 2.68 0 01.18-1.19 4 4 0 01.69-1.17 3.48 3.48 0 012.53-1.49 4.1 4.1 0 012.75 1.05 6.13 6.13 0 011.07 1.1 3.3 3.3 0 01.58 1.23 3 3 0 01-.12 1.32zm7.91 15a3.19 3.19 0 01-1.38.66 2.71 2.71 0 01-.56 0 3.19 3.19 0 01-.86-.12 7.09 7.09 0 01-1.35-.55 8.51 8.51 0 01-1.21-.81 3.06 3.06 0 01-.85-1.11 2.82 2.82 0 01-.21-1.5 5.14 5.14 0 01.66-1.93l4-7.45 2.37 1.28-4 7.45a5.14 5.14 0 00-.33.74 1.6 1.6 0 00-.11.62 1 1 0 00.15.52 1.54 1.54 0 001.08.6 1.07 1.07 0 00.54-.16 1.72 1.72 0 00.46-.44 4.71 4.71 0 00.44-.68l4-7.46 2.37 1.28-4 7.46a5.16 5.16 0 01-1.23 1.62zm12.54 6.89l-2.35-.85 2.92-8-4.7 7.37-2-.71 1.13-8.68-2.92 8-2.34-.85 4.17-11.5 3.61 1.31-1.2 8 4.24-6.92 3.59 1.31zm13.1 2.68l-2.89-.52.2-8.07-2.63 7.64-2.88-.52v-12.43l2.56.46-.24 8.24 2.71-7.8 2.52.46-.17 8.25 2.64-7.81 2.56.46zm12.07-9.26l-4.26-.15-.09 2.52 4 .15-.08 2.25-4-.14L304 341l4.43.16-.08 2.26-7.13-.26.45-12.22 6.95.25zm2.32 9.9l-.88-12.2 2.69-.2.71 9.95 4.26-.31.16 2.26zm12.24-1.32l-2.66.44v-.14l-1.58-9.7-2.58.42-.36-2.23 7.81-1.28.36 2.23-2.57.42zm-.75-27.18c-8.92-8.2-11.72-10.05-14.6-10.2-2.87.15-5.68 2-14.6 10.2-1 .93-5.41.69-3.56-1 4.28-3.84 12.61-9.17 16.17-10.33.44-.14-8-3.16-17.19 3.4-4.58 3.25-9.65 7.07-16.81 3.51a17.46 17.46 0 01-7.37-6.63c5.34 1.56 11.8 2 21.06-2.36 10-4.66 19.44-.19 22.3.73 2.86-.92 12.28-5.39 22.3-.73 9.26 4.32 15.72 3.92 21.06 2.36a17.38 17.38 0 01-7.37 6.63c-7.16 3.56-12.23-.26-16.81-3.51-9.24-6.56-17.63-3.54-17.19-3.4 3.56 1.16 11.89 6.49 16.17 10.33 1.86 1.67-2.56 1.91-3.56.98zm5.29 26.32l-.53-1.86 2-8.9-3.86 1.08-.61-2.17 6.89-1.95.54 1.93-2 8.82 4.27-1.21.61 2.18zm9.71-2.92l-4.63-11.32 6.45-2.63.85 2.09L336 328l1 2.34 3.71-1.52.86 2.09-3.72 1.52 1.11 2.71 4.1-1.67.86 2.09zm8.85-3.86l-5.61-10.86 2.39-1.24.06.13 5.56 10.74zm10-6a4.52 4.52 0 01-1.47 1.4 4.76 4.76 0 01-2.12.83h-.25a3 3 0 01-1.54-.42 5.69 5.69 0 01-1.57-1.38 24.15 24.15 0 01-1.47-2.06 21 21 0 01-1.25-2.18 5.73 5.73 0 01-.62-2 3.2 3.2 0 01.36-1.82 4.48 4.48 0 011.61-1.61 4.2 4.2 0 012-.77 3 3 0 011.58.3 3.9 3.9 0 011.18 1 12.91 12.91 0 01.85 1.14l.07.12-2.26 1.45-.08-.12a4.33 4.33 0 00-1.24-1.38 1.2 1.2 0 00-1.56.64 1.61 1.61 0 000 .83 6.79 6.79 0 00.56 1.29c.28.52.65 1.13 1.11 1.84a20.08 20.08 0 001.25 1.78 4.82 4.82 0 00.91.91 1.16 1.16 0 00.61.23 1.36 1.36 0 00.59-.21 1.33 1.33 0 00.4-.38.81.81 0 00.14-.54 2.65 2.65 0 00-.22-.89A7.81 7.81 0 00353 325l-.08-.12 2.26-1.45.08.12a10.18 10.18 0 01.88 1.65 4.27 4.27 0 01.37 1.63 3 3 0 01-.36 1.46zm8-5.94l-3.41-4.06-1.93 1.62 3.41 4.07-2.07 1.73-7.86-9.38 2.07-1.72 2.93 3.5 1.94-1.63-2.93-3.5 2.06-1.73 7.86 9.37zm4.3-3.89l-.1-.1-8.82-8.27 4.77-5.07 1.64 1.54-2.92 3.11 1.85 1.73 2.74-2.93 1.65 1.55-2.73 2.91 2.14 2 3-3.23 1.65 1.54zm9.7-11.53l-7.88-2.38 6.27 4.59-1.48 2-.11-.09-9.75-7.12 1.78-2.43 7.72 2.3-6.12-4.48 1.47-2 .11.08 9.76 7.14z" transform="translate(-108.1 -155.74)"/></g><g clip-path="url(#prefix__prefix__clip-path)"><path class="prefix__prefix__cls-2" d="M121.89 369.13c-.54 0-13.29.18-13.29 13.29v20c0 .54.18 13.3 13.29 13.3h372c.54 0 13.3-.18 13.3-13.3v-20c0-.54-.18-13.29-13.3-13.29z" transform="translate(-108.1 -155.74)"/><path d="M121.89 369.13c-.54 0-13.29.18-13.29 13.29v20c0 .54.18 13.3 13.29 13.3h372c.54 0 13.3-.18 13.3-13.3v-20c0-.54-.18-13.29-13.3-13.29z" transform="translate(-108.1 -155.74)" stroke="#005ca9" fill="none"/></g><path class="prefix__prefix__cls-3" d="M131.3 388.26h4.28l2 11.87h.06l2.08-11.87h4.66l2.2 11.87h.06l2-11.87h4.1L149.12 405h-4.88L142 393.11 139.9 405h-5zm21.85 0h4.29l1.95 11.87h.06l2.08-11.87h4.66l2.21 11.87h.06l2-11.87h4.1L171 405h-4.9l-2.21-11.86h-.06L161.75 405h-5zm21.85 0h4.28l2 11.87h.06l2.08-11.87h4.66l2.2 11.87h.06l2-11.87h4.1L192.83 405H188l-2.2-11.86h-.06L183.61 405h-5zm26.3 11.87V405h-4.1v-4.84zm3.11-17.33h4.28v7h.06a4 4 0 013.6-2c3.51 0 5.13 2.58 5.13 8.79s-1.62 8.78-5.13 8.78a4 4 0 01-3.78-2.2h-.07V405h-4.09zm6.59 19.31c1.86 0 2.23-1.86 2.23-5.49s-.37-5.5-2.23-5.5-2.27 1.86-2.27 5.5.33 5.49 2.27 5.49zm9.08-19.31h4.29V405h-4.29zm7.27 10.59V393c0-3.85 2.64-5.15 5.87-5.15 5.09 0 6.05 2.11 6.05 5.12v8.79a6.75 6.75 0 00.53 3.23h-4.1a7.27 7.27 0 01-.53-1.74h-.06c-1 1.74-2.2 2.17-4.25 2.17-3 0-4-2.54-4-4.78 0-3.13 1.27-4.41 4.22-5.21l2.42-.66c1.28-.34 1.71-.83 1.71-1.95 0-1.27-.56-2.05-2-2.05a1.91 1.91 0 00-2 2.17v.47zm7.82 3.23a5.25 5.25 0 01-1.83.83c-1.74.38-2.42 1.22-2.42 2.71 0 1.27.46 2.33 1.61 2.33a2.53 2.53 0 002.64-2.58zm15.71 6.38h-.06a4.58 4.58 0 01-4.26 2.39c-2.67 0-4.25-1.46-4.25-4.75v-12.38h4.28v11.52c0 1.68.56 2.33 1.84 2.33 1.46 0 2.26-.9 2.26-2.76v-11.09H255V405h-4.1zm10.62-5.73v1.33c0 2 .52 3.89 2.11 3.89 1.43 0 2-1.09 2.26-3.14h3.85c-.15 3.88-2 6-6.05 6-6.21 0-6.46-4.78-6.46-8.94 0-4.47.87-8.63 6.65-8.63 5 0 6.11 3.35 6.11 8.48v1zm4.37-2.55c-.09-2.54-.4-4-2.17-4s-2.2 1.77-2.2 3.32v.65zm6.34-6.46h4.09v2.24h.07a4.33 4.33 0 013.85-2.67 6.65 6.65 0 01.77.06V392c-.43 0-.9-.06-1.33-.06a2.89 2.89 0 00-3.17 3v10h-4.28zm17.91 5.9v3.67h-8.76v-3.67zm6.46 3.11v1.33c0 2 .52 3.89 2.11 3.89 1.43 0 2-1.09 2.26-3.14h3.85c-.15 3.88-2 6-6.05 6-6.21 0-6.46-4.78-6.46-8.94 0-4.47.87-8.63 6.65-8.63 5 0 6.11 3.35 6.11 8.48v1zm4.37-2.55c-.09-2.54-.4-4-2.17-4s-2.2 1.77-2.2 3.32v.65zm6.34-6.46h4.09v2h.07a4.59 4.59 0 014.25-2.39c2.67 0 4.25 1.46 4.25 4.75V405h-4.28v-11.55c0-1.68-.56-2.33-1.83-2.33-1.46 0-2.27.9-2.27 2.76V405h-4.28zm28.03 0v15.87c0 4.41-2 6.55-6.95 6.55-3.64 0-5.69-1.61-5.69-4.47h4.1a1.49 1.49 0 00.65 1.27 2.55 2.55 0 001.43.47c1.74 0 2.36-1.3 2.36-3v-2.21h-.06a4.48 4.48 0 01-3.57 2c-3.42 0-5.12-2.33-5.12-8.44 0-3.91.59-8.51 5.24-8.51a3.74 3.74 0 013.45 2.3h.06v-1.87zm-6.43 13.23c1.8 0 2.33-1.95 2.33-4.78 0-4.07-.53-5.59-2.23-5.59-1.9 0-2.24 1.52-2.24 6 0 2.32.34 4.37 2.14 4.37zm13.11-4.22v1.33c0 2 .53 3.89 2.11 3.89 1.43 0 2-1.09 2.27-3.14h3.85c-.15 3.88-2 6-6.05 6-6.21 0-6.46-4.78-6.46-8.94 0-4.47.87-8.63 6.64-8.63 5 0 6.12 3.35 6.12 8.48v1zm4.38-2.55c-.09-2.54-.4-4-2.17-4s-2.21 1.77-2.21 3.32v.65zm6.48-11.92h4.28V405h-4.28zm11.64 17.33V405h-4.1v-4.84zm11.67 3.07h-.06a4 4 0 01-3.79 2.2c-3.5 0-5.12-2.57-5.12-8.78s1.62-8.79 5.12-8.79a4 4 0 013.61 2h.07v-7h4.28V405h-4.1zm-2.45-1.09c1.89 0 2.27-1.86 2.27-5.49s-.38-5.5-2.27-5.5-2.23 1.86-2.23 5.5.37 5.49 2.23 5.49zm13.07-4.84v1.33c0 2 .53 3.89 2.11 3.89s2-1.09 2.27-3.14H395c-.16 3.88-2 6-6.06 6-6.21 0-6.45-4.78-6.45-8.94 0-4.47.87-8.63 6.64-8.63 5 0 6.12 3.35 6.12 8.48v1zm4.38-2.55c-.09-2.54-.4-4-2.17-4s-2.21 1.77-2.21 3.32v.65zm15.01-15.36l-8.61 26h-1.9l8.6-26zm1.69 6.88H410v13.19c0 3 1 4.2 3.24 4.2 2.4 0 4.09-1.91 4.09-4.8v-12.59h2.12V405h-1.91v-2.61h-.07a5.24 5.24 0 01-4.79 3c-2.86 0-4.8-1.48-4.8-5zm14.25 16.97L431 388h-8.43v-1.76h10.69V388l-8.89 15.21h8.89V405h-11.14zM442 385.85h-5.7v-1.55c4.2 0 6.07-1.69 6.21-4.3h1.62v25H442zm10.5 1.98c.07-4.83 2.36-7.83 7.05-7.83 3.39 0 6.45 2 6.45 6.77 0 3-.91 5-4.12 7.69l-2.72 2.22c-2.61 2.15-4 3.77-4.37 6.38h11.43V405h-13.83c0-4.13 1.87-6.81 5.22-9.63l2.68-2.26c2.5-2.11 3.46-3.81 3.46-6.2 0-3.32-1.84-5.12-4.41-5.12-2.86 0-4.45 1.91-4.59 6.07zm23.74-7.83c5.68 0 7 5.32 7 12.7s-1.34 12.69-7 12.69-7-5.32-7-12.69 1.32-12.7 7-12.7zm0 23.63c3.42 0 4.76-2.93 4.76-10.93s-1.34-10.94-4.76-10.94-4.76 2.93-4.76 10.94 1.34 10.93 4.76 10.93z" transform="translate(-108.1 -155.74)"/></svg>
