<svg xmlns="http://www.w3.org/2000/svg" viewBox="0 0 174.33 174.33"><defs><clipPath id="prefix__prefix__a" transform="translate(-872.79 -453.79)"><path fill="none" d="M872 453h175.75v175.75H872z"/></clipPath><style>.prefix__prefix__f{fill:#e4032e}</style></defs><g clip-path="url(#prefix__prefix__a)" stroke="#1d1d1b" stroke-miterlimit="3.86" fill="none"><path d="M2.13 7.8A5.67 5.67 0 017.8 2.13h158.74a5.67 5.67 0 015.67 5.67v158.74a5.67 5.67 0 01-5.67 5.67H7.8a5.67 5.67 0 01-5.67-5.67V7.8z" stroke-width="4.25"/><path d="M2.72 111.76h169.94M2.72 144.47h169.2" stroke-width="1.98"/></g><path d="M21.56 96.46V78.1h-3.42v18.36h3.42zm23.91 0V78.1h-2.83v11.11c0 1.07.08 1.95.08 1.95a19.87 19.87 0 00-1-1.87l-6.56-11.15h-3.2V96.5h2.85V84.69c0-1.09-.11-2.13-.11-2.13h.06a22.07 22.07 0 001.07 2l7 11.85zm19.81-5.34c0-1.76-.54-3.79-4.14-5.31-1.6-.67-2.78-1.41-2.78-3a2.45 2.45 0 012.65-2.67 5.45 5.45 0 012.82.82l.75-2.08a7.09 7.09 0 00-4-1 5.27 5.27 0 00-5.5 5.39c0 1.79.8 3.77 3.79 5 2.06.85 2.86 1.71 2.86 3.1a2.69 2.69 0 01-2.94 2.82 5.54 5.54 0 01-3.07-.85l-.82 2.38a8 8 0 004.53 1 5.55 5.55 0 005.88-5.61zm18.16-10.75V78.1H73.2v2.27h3.41v16.09H80V80.37h3.44zm12.68 16.09V78.1H92.7v18.36h3.42zm19.53-16.09V78.1h-10.24v2.27h3.41v16.09h3.39V80.37h3.44zm21.32 10.75v-13h-3.14v13a2.74 2.74 0 01-2.78 3 2.77 2.77 0 01-2.8-3v-13h-3.39v13c0 3.34 2.45 5.63 6.06 5.63s6-2.29 6-5.63zm19.49-10.75V78.1h-10.25v2.27h3.41v16.09h3.39V80.37h3.45z" fill="#878380"/><path class="prefix__prefix__f" d="M26.59 52.21l25.43-25.43c-17.81-12-35.91 10.84-25.43 25.43zm33.07 7.52A25.212 25.212 0 0124 24.08c12-12 27.52-8.14 38.12 2.46L31.64 57.03a18.24 18.24 0 0023.09-2.23l4.93 4.93zm72.99-42.72a25.22 25.22 0 11-25.21 25.2 25.22 25.22 0 0125.21-25.22zm0 7a18.24 18.24 0 1018.24 18.2 18.24 18.24 0 00-18.24-18.24z"/><path class="prefix__prefix__f" d="M105.68 59.6a25.22 25.22 0 110-35.66l-4.93 4.94c-17-17-42.77 8.81-25.8 25.79a18.25 18.25 0 0025.8 0l4.93 4.93z"/><path d="M22.9 121.93v-2.12h-7.88v2.12h2.6v14.4h2.68v-14.4h2.6zm8.92 14.4v-2.11h-4.2v-5.33h3.72v-2.07h-3.72v-4.89h4.2v-2.12h-6.91v16.52h6.91zm9.72-4.37c0-2.06-1.08-3.34-3-4.87-1.66-1.35-2.26-2.07-2.26-3.36a1.86 1.86 0 012-2 3.68 3.68 0 012.16.67l.53-1.84a4.77 4.77 0 00-3.1-1 4.12 4.12 0 00-4.22 4.41c0 1.8.91 3.19 2.71 4.68s2.33 2.16 2.33 3.53a2 2 0 01-2.11 2 3.83 3.83 0 01-2.43-.79l-.65 2.16a5.49 5.49 0 003.51 1 4.3 4.3 0 004.51-4.61zm8.83-10.03v-2.12h-7.88v2.12h2.6v14.4h2.68v-14.4h2.6zm8.92 14.4v-2.11h-4.2v-5.33h3.72v-2.07h-3.72v-4.89h4.2v-2.12h-6.91v16.52h6.91zm12.43-8.38c0-4.92-1.85-8.37-6.09-8.37a7.31 7.31 0 00-3.87 1v15.03a6.89 6.89 0 004 1c4.27 0 6-3.72 6-8.62zm-2.76 0c0 4.44-.91 6.51-3.24 6.51a3.71 3.71 0 01-1.29-.22v-12.43a3.25 3.25 0 011.24-.19c2.28 0 3.29 2.08 3.29 6.28zm20.57-3.21c0-3-1.49-5.16-5.09-5.16a7.47 7.47 0 00-3.91 1v15.79h2.68v-6.58l.39.05c4.15.53 5.93-2 5.93-5.06zm-2.64 0c0 1.83-.75 3.36-3.29 3.19h-.39v-6.24a3 3 0 011.16-.19c1.87 0 2.52 1.34 2.52 3.26zm14.49 11.59l-4-7.37a4.27 4.27 0 003.38-4.2c0-3.14-1.54-5.13-5.14-5.13a7.25 7.25 0 00-3.86 1v15.79h2.69v-7.8l3.91 7.8zm-3.29-11.57a3 3 0 01-3.24 3.17 2.94 2.94 0 01-.46-.05v-6.24a2.86 2.86 0 011.2-.22c1.85 0 2.5 1.23 2.5 3.34zm15.62 3.31c0-4.63-1.51-8.49-5.33-8.49s-5.33 3.86-5.33 8.49 1.52 8.5 5.33 8.5 5.33-3.84 5.33-8.5zm-2.76-.07c0 3.1-.43 6.26-2.57 6.26s-2.59-3.16-2.59-6.26.53-6.31 2.59-6.31 2.57 3.17 2.57 6.31zm15.43-.05c0-4.92-1.85-8.37-6.1-8.37a7.28 7.28 0 00-3.86 1v15.03a6.86 6.86 0 004 1c4.27 0 6-3.72 6-8.62zm-2.76 0c0 4.44-.92 6.51-3.24 6.51a3.73 3.73 0 01-1.3-.22v-12.43a3.34 3.34 0 011.25-.19c2.28 0 3.29 2.08 3.29 6.28zm14.75 3.7v-11.83h-2.47v12c0 1.46-.81 2.4-2.06 2.4s-2.07-.91-2.07-2.4v-12h-2.68v11.8c0 3.15 2 5 4.63 5s4.65-1.82 4.65-4.94zm11.09 3.96l-.6-1.92a3 3 0 01-1.9.57c-2.21 0-3.1-3.16-3.1-6.19s.77-6.31 3.12-6.31a3.2 3.2 0 011.88.55l.57-1.77a4.21 4.21 0 00-3-1c-3.6 0-5.4 4-5.4 8.49 0 4.68 1.75 8.5 5.35 8.5a4.15 4.15 0 003-1zm9.5-13.68v-2.12h-7.87v2.12h2.59v14.4h2.69v-14.4h2.59zM16.21 164.68v-12h1.91v12zm7.28.17a5.37 5.37 0 01-2.85-.66v-11.06a5.35 5.35 0 012.78-.67c3.06 0 4.5 2.52 4.5 6.11s-1.31 6.28-4.43 6.28zm0-11a2.4 2.4 0 00-1 .18v9.18a2.21 2.21 0 001 .19c1.73 0 2.5-1.66 2.5-4.87s-.84-4.69-2.53-4.69zm13.9 11c-2.35 0-3.28-2.62-3.28-6.19s.93-6.2 3.28-6.2 3.25 2.63 3.25 6.2-.91 6.19-3.25 6.19zm0-11.11c-1.21 0-1.51 2.15-1.51 4.88s.3 4.87 1.51 4.87 1.48-2.14 1.48-4.87-.28-4.88-1.48-4.88zm8.34 11.11a3.07 3.07 0 01-3.29-3.13c0-1.61 1-2.52 2.19-3.31a3.66 3.66 0 01-1.91-3.11 3 3 0 016 0c0 1.47-.86 2.2-2 3 1.19.83 2.26 1.68 2.26 3.42a3.12 3.12 0 01-3.25 3.13zm-.07-5.65a2.94 2.94 0 00-1.61 2.47 1.74 1.74 0 001.67 1.82 1.66 1.66 0 001.62-1.79c0-1.2-.68-1.8-1.68-2.49zm.11-5.53a1.45 1.45 0 00-1.45 1.59 2.71 2.71 0 001.43 2.31c.89-.66 1.52-1.26 1.52-2.31a1.51 1.51 0 00-1.5-1.59zm8.21 11.01v-9.72a7.59 7.59 0 01-2.56.65l-.19-1.15a4.52 4.52 0 003.27-1.82h1.31v12zm8.55.17c-2 0-3.32-1.68-3.32-4.56a7.75 7.75 0 015.35-7.79l.49 1.27a6.23 6.23 0 00-3.74 3.89 3.07 3.07 0 011.22-.25c2.12 0 3.24 1.56 3.24 3.66 0 1.93-1.03 3.78-3.24 3.78zm-.36-6.3a3 3 0 00-1.16.25 8.13 8.13 0 00-.09 1.52c0 2 .58 3.18 1.63 3.18s1.51-1.13 1.51-2.43-.56-2.52-1.85-2.52zm9.76 1.49v-1.56h3.66v1.56zm12.37 4.81a5.34 5.34 0 01-2.62-.63l.49-1.33a4 4 0 001.89.48 2.08 2.08 0 002-2.28c0-1.44-1-2.33-2.7-2.33v-1.07c1.45-.12 2.45-.94 2.45-2.1a1.65 1.65 0 00-1.8-1.73 3.26 3.26 0 00-1.63.46l-.47-1.23a5 5 0 012.52-.63 2.9 2.9 0 013.17 2.87 3.11 3.11 0 01-1.77 2.68 3.34 3.34 0 012.12 3.07 3.63 3.63 0 01-3.65 3.77zm8.37 0a5.35 5.35 0 01-2.63-.63l.49-1.33a4 4 0 001.89.48 2.07 2.07 0 002-2.28c0-1.44-1-2.33-2.69-2.33v-1.07c1.45-.12 2.45-.94 2.45-2.1a1.66 1.66 0 00-1.81-1.73 3.22 3.22 0 00-1.62.46l-.48-1.23a5 5 0 012.52-.63 2.9 2.9 0 013.17 2.87 3.09 3.09 0 01-1.75 2.68 3.33 3.33 0 012.12 3.07 3.62 3.62 0 01-3.66 3.77zm9.17 0c-2 0-3.33-1.68-3.33-4.56a7.75 7.75 0 015.36-7.79l.49 1.27a6.22 6.22 0 00-3.75 3.89 3.16 3.16 0 011.23-.25c2.12 0 3.24 1.56 3.24 3.66 0 1.93-1.04 3.78-3.24 3.78zm-.37-6.3a2.91 2.91 0 00-1.15.25 8.13 8.13 0 00-.09 1.52c0 2 .58 3.18 1.63 3.18s1.5-1.13 1.5-2.43-.56-2.52-1.89-2.52zm8.74 6.3c-2 0-3.32-1.68-3.32-4.56a7.75 7.75 0 015.35-7.79l.49 1.27a6.2 6.2 0 00-3.74 3.89 3.07 3.07 0 011.22-.25c2.12 0 3.24 1.56 3.24 3.66-.01 1.93-1.04 3.78-3.24 3.78zm-.37-6.3a3 3 0 00-1.15.25 8.13 8.13 0 00-.09 1.52c0 2 .58 3.18 1.63 3.18s1.51-1.13 1.51-2.43-.53-2.52-1.91-2.52zm11.11 3.45v2.68h-1.66V162h-4.08v-1.23l4-8.13h1.73v8.19h.84V162zm-1.59-7.35a10 10 0 01-.55 1.36l-2.32 4.82h2.83v-4.68c0-.71 0-1.34.07-1.5zm8.6 5.39v-1.56h3.66v1.56zm13.13 4.81c-2.35 0-3.27-2.62-3.27-6.19s.92-6.2 3.27-6.2 3.25 2.63 3.25 6.2-.91 6.19-3.25 6.19zm0-11.11c-1.21 0-1.5 2.15-1.5 4.88s.29 4.87 1.5 4.87 1.49-2.14 1.49-4.87-.28-4.88-1.49-4.88zm8.37 11.11c-2.35 0-3.28-2.62-3.28-6.19s.93-6.2 3.28-6.2 3.25 2.63 3.25 6.2-.91 6.19-3.25 6.19zm0-11.11c-1.21 0-1.51 2.15-1.51 4.88s.3 4.87 1.51 4.87 1.48-2.14 1.48-4.87-.28-4.88-1.48-4.88zm4.81 10.94l3.74-6.25a4.54 4.54 0 00.82-2.47 1.87 1.87 0 00-2-2.06 3.69 3.69 0 00-1.68.43l-.47-1.2a5.24 5.24 0 012.68-.67 3.16 3.16 0 013.36 3.36 6.16 6.16 0 01-1.25 3.22l-2.62 4h3.9v1.61z" fill="#1d1d1b"/></svg>
